<?xml version="1.0" standalone="no"?>
<!DOCTYPE svg PUBLIC "-//W3C//DTD SVG 20010904//EN"
 "http://www.w3.org/TR/2001/REC-SVG-20010904/DTD/svg10.dtd">
<svg version="1.0" xmlns="http://www.w3.org/2000/svg"
 width="210.000000pt" height="365.000000pt" viewBox="0 0 210.000000 365.000000"
 preserveAspectRatio="xMidYMid meet">
<metadata>
Created by potrace 1.16, written by Peter Selinger 2001-2019
</metadata>
<g transform="translate(0.000000,365.000000) scale(0.100000,-0.100000)"
fill="#000000" stroke="none">
<path d="M897 3414 c-332 -60 -544 -317 -524 -638 15 -256 159 -434 457 -567
143 -63 173 -70 68 -13 -99 52 -212 151 -252 218 -58 99 -73 267 -37 409 23
89 40 124 91 192 190 256 734 255 1036 -1 l66 -57 -37 71 c-151 288 -516 450
-868 386z"/>
<path d="M162 3043 c-46 -72 -81 -156 -104 -252 -27 -116 -22 -330 12 -436 42
-136 141 -282 253 -378 160 -136 356 -235 701 -354 390 -133 635 -310 755
-542 21 -42 47 -107 56 -146 22 -86 23 -238 2 -315 -20 -73 0 -46 43 56 58
139 73 230 67 404 -5 175 -18 234 -76 355 -125 262 -387 447 -881 620 -461
163 -717 381 -795 680 -17 69 -20 251 -4 308 6 22 8 41 6 43 -2 3 -18 -17 -35
-43z"/>
<path d="M1116 1492 c271 -144 367 -332 309 -607 -50 -239 -217 -374 -499
-406 -243 -27 -499 50 -646 193 -27 28 -50 46 -50 41 0 -17 67 -125 110 -175
102 -123 252 -216 415 -259 106 -28 317 -31 420 -5 99 24 220 86 287 146 153
136 227 366 183 566 -51 237 -187 375 -497 507 -110 47 -122 47 -32 -1z"/>
</g>
</svg>
