<?xml version="1.0" encoding="utf-8"?>
<!-- Generator: Adobe Illustrator 16.0.0, SVG Export Plug-In . SVG Version: 6.00 Build 0)  -->
<!DOCTYPE svg PUBLIC "-//W3C//DTD SVG 1.1//EN" "http://www.w3.org/Graphics/SVG/1.1/DTD/svg11.dtd">
<svg version="1.1" id="Layer_1" xmlns="http://www.w3.org/2000/svg" xmlns:xlink="http://www.w3.org/1999/xlink" x="0px" y="0px"
	 width="128px" height="128px" viewBox="0 0 128 128" enable-background="new 0 0 128 128" xml:space="preserve">
<g>
	<g>
		<path fill="#282D33" d="M69.936,70.211H45.3c-11.413,0-20.698-9.354-20.698-20.853S33.887,28.506,45.3,28.506h24.638
			L69.936,70.211z M45.3,32.506c-9.207,0-16.698,7.56-16.698,16.853S36.093,66.211,45.3,66.211h20.636V32.506H45.3z"/>
	</g>
	<g>
		<polygon fill="#282D33" points="128,55.873 68.271,55.873 68.271,51.873 124,51.873 124,32.506 66.95,32.506 66.95,28.506 
			128,28.506 		"/>
	</g>
	<g>
		<polygon fill="#282D33" points="106.527,69.683 66.95,69.683 66.95,65.683 102.527,65.683 102.527,56.49 68.271,56.49 
			68.271,52.49 106.527,52.49 		"/>
	</g>
	<g>
		<rect x="118.096" y="22.069" fill="#282D33" width="4" height="9.924"/>
	</g>
	<g>
		
			<rect x="23.628" y="29.496" transform="matrix(0.704 0.7102 -0.7102 0.704 30.8233 -10.9674)" fill="#282D33" width="9.883" height="4"/>
	</g>
	<g>
		<rect x="41.333" y="31.061" fill="#282D33" width="4" height="20.714"/>
	</g>
	<g>
		<path fill="#282D33" d="M53.042,105.931H4.025l-0.493-1.281C1.188,98.565,0,92.146,0,85.573c0-19.367,10.27-36.846,26.801-45.612
			l1.874,3.534C13.455,51.566,4,67.69,4,85.573c0,5.62,0.938,11.116,2.791,16.357h39.743c-2.766-6.233-4.216-13.071-4.216-19.966
			c0-4.779,0.679-9.497,2.018-14.024l3.836,1.135c-1.23,4.158-1.854,8.495-1.854,12.89c0,7.345,1.79,14.618,5.176,21.032
			L53.042,105.931z"/>
	</g>
	<g>
		<path fill="#282D33" d="M54.307,84.903H44.81v-4h9.497c6.425,0,11.652-5.278,11.652-11.767h4
			C69.959,77.83,62.938,84.903,54.307,84.903z"/>
	</g>
	<g>
		<path fill="#282D33" d="M29.2,93.278h-0.129v-4H29.2V93.278z M25.071,93.278h-4v-4h4V93.278z M17.071,93.278h-4v-4h4V93.278z"/>
	</g>
</g>
</svg>
